<?xml version="1.0" encoding="UTF-8" standalone="no"?>
<!DOCTYPE svg PUBLIC "-//W3C//DTD SVG 1.1//EN"
 "http://www.w3.org/Graphics/SVG/1.1/DTD/svg11.dtd">
<!-- Generated by graphviz version 5.0.0 (20220707.1540)
 -->
<!-- Pages: 1 -->
<svg width="496pt" height="188pt"
 viewBox="0.00 0.00 496.00 188.00" xmlns="http://www.w3.org/2000/svg" xmlns:xlink="http://www.w3.org/1999/xlink">
<g id="graph0" class="graph" transform="scale(1 1) rotate(0) translate(4 184)">
<polygon fill="white" stroke="transparent" points="-4,4 -4,-184 492,-184 492,4 -4,4"/>
<!-- 4 -->
<g id="node1" class="node">
<title>4</title>
<ellipse fill="none" stroke="black" cx="173" cy="-162" rx="27" ry="18"/>
<text text-anchor="middle" x="173" y="-157.8" font-family="Times,serif" font-size="14.00">4</text>
</g>
<!-- 9 -->
<g id="node2" class="node">
<title>9</title>
<ellipse fill="none" stroke="black" cx="103" cy="-90" rx="27" ry="18"/>
<text text-anchor="middle" x="103" y="-85.8" font-family="Times,serif" font-size="14.00">9</text>
</g>
<!-- 4&#45;&#45;9 -->
<g id="edge1" class="edge">
<title>4&#45;&#45;9</title>
<path fill="none" stroke="black" d="M158.5,-146.5C146.48,-134.48 129.49,-117.49 117.49,-105.49"/>
</g>
<!-- 5 -->
<g id="node3" class="node">
<title>5</title>
<ellipse fill="none" stroke="black" cx="149" cy="-18" rx="27" ry="18"/>
<text text-anchor="middle" x="149" y="-13.8" font-family="Times,serif" font-size="14.00">5</text>
</g>
<!-- 4&#45;&#45;5 -->
<g id="edge2" class="edge">
<title>4&#45;&#45;5</title>
<path fill="none" stroke="black" d="M170.11,-143.87C165.49,-116.58 156.52,-63.52 151.91,-36.19"/>
</g>
<!-- 3 -->
<g id="node5" class="node">
<title>3</title>
<ellipse fill="none" stroke="black" cx="60" cy="-18" rx="27" ry="18"/>
<text text-anchor="middle" x="60" y="-13.8" font-family="Times,serif" font-size="14.00">3</text>
</g>
<!-- 9&#45;&#45;3 -->
<g id="edge4" class="edge">
<title>9&#45;&#45;3</title>
<path fill="none" stroke="black" d="M93.24,-73.12C86.21,-61.66 76.75,-46.26 69.72,-34.82"/>
</g>
<!-- 8 -->
<g id="node4" class="node">
<title>8</title>
<ellipse fill="none" stroke="black" cx="101" cy="-162" rx="27" ry="18"/>
<text text-anchor="middle" x="101" y="-157.8" font-family="Times,serif" font-size="14.00">8</text>
</g>
<!-- 8&#45;&#45;9 -->
<g id="edge3" class="edge">
<title>8&#45;&#45;9</title>
<path fill="none" stroke="black" d="M101.49,-143.7C101.8,-132.85 102.2,-118.92 102.51,-108.1"/>
</g>
<!-- 7 -->
<g id="node6" class="node">
<title>7</title>
<ellipse fill="none" stroke="black" cx="461" cy="-162" rx="27" ry="18"/>
<text text-anchor="middle" x="461" y="-157.8" font-family="Times,serif" font-size="14.00">7</text>
</g>
<!-- 10 -->
<g id="node7" class="node">
<title>10</title>
<ellipse fill="none" stroke="black" cx="262" cy="-18" rx="27" ry="18"/>
<text text-anchor="middle" x="262" y="-13.8" font-family="Times,serif" font-size="14.00">10</text>
</g>
<!-- 7&#45;&#45;10 -->
<g id="edge5" class="edge">
<title>7&#45;&#45;10</title>
<path fill="none" stroke="black" d="M443.33,-147.88C419.7,-130.38 376.43,-98.53 339,-72 319.14,-57.92 296.12,-42.15 280.46,-31.5"/>
</g>
<!-- 6 -->
<g id="node8" class="node">
<title>6</title>
<ellipse fill="none" stroke="black" cx="28" cy="-162" rx="27" ry="18"/>
<text text-anchor="middle" x="28" y="-157.8" font-family="Times,serif" font-size="14.00">6</text>
</g>
<!-- 2 -->
<g id="node9" class="node">
<title>2</title>
<ellipse fill="none" stroke="black" cx="27" cy="-90" rx="27" ry="18"/>
<text text-anchor="middle" x="27" y="-85.8" font-family="Times,serif" font-size="14.00">2</text>
</g>
<!-- 6&#45;&#45;2 -->
<g id="edge6" class="edge">
<title>6&#45;&#45;2</title>
<path fill="none" stroke="black" d="M27.75,-143.7C27.6,-132.85 27.4,-118.92 27.24,-108.1"/>
</g>
<!-- 2&#45;&#45;3 -->
<g id="edge10" class="edge">
<title>2&#45;&#45;3</title>
<path fill="none" stroke="black" d="M34.82,-72.41C40.08,-61.25 46.99,-46.6 52.24,-35.47"/>
</g>
<!-- 11 -->
<g id="node10" class="node">
<title>11</title>
<ellipse fill="none" stroke="black" cx="317" cy="-162" rx="27" ry="18"/>
<text text-anchor="middle" x="317" y="-157.8" font-family="Times,serif" font-size="14.00">11</text>
</g>
<!-- 11&#45;&#45;5 -->
<g id="edge8" class="edge">
<title>11&#45;&#45;5</title>
<path fill="none" stroke="black" d="M300.89,-147.38C268.86,-120.31 197.5,-59.99 165.31,-32.78"/>
</g>
<!-- 11&#45;&#45;10 -->
<g id="edge7" class="edge">
<title>11&#45;&#45;10</title>
<path fill="none" stroke="black" d="M311.62,-144.1C305.76,-126.08 295.9,-96.77 286,-72 281.05,-59.62 274.83,-45.91 269.96,-35.54"/>
</g>
<!-- 0 -->
<g id="node11" class="node">
<title>0</title>
<ellipse fill="none" stroke="black" cx="389" cy="-162" rx="27" ry="18"/>
<text text-anchor="middle" x="389" y="-157.8" font-family="Times,serif" font-size="14.00">0</text>
</g>
<!-- 0&#45;&#45;10 -->
<g id="edge9" class="edge">
<title>0&#45;&#45;10</title>
<path fill="none" stroke="black" d="M375.65,-146.07C351.19,-118.73 299.49,-60.92 275.17,-33.73"/>
</g>
<!-- 1 -->
<g id="node12" class="node">
<title>1</title>
<ellipse fill="none" stroke="black" cx="245" cy="-162" rx="27" ry="18"/>
<text text-anchor="middle" x="245" y="-157.8" font-family="Times,serif" font-size="14.00">1</text>
</g>
<!-- 1&#45;&#45;5 -->
<g id="edge11" class="edge">
<title>1&#45;&#45;5</title>
<path fill="none" stroke="black" d="M234.36,-145.26C215.91,-117.97 178.17,-62.15 159.69,-34.81"/>
</g>
</g>
</svg>
