<?xml version="1.0" encoding="UTF-8" standalone="no"?>
<!DOCTYPE svg PUBLIC "-//W3C//DTD SVG 1.1//EN"
 "http://www.w3.org/Graphics/SVG/1.1/DTD/svg11.dtd">
<!-- Generated by graphviz version 5.0.0 (20220707.1540)
 -->
<!-- Pages: 1 -->
<svg width="325pt" height="404pt"
 viewBox="0.00 0.00 325.00 404.00" xmlns="http://www.w3.org/2000/svg" xmlns:xlink="http://www.w3.org/1999/xlink">
<g id="graph0" class="graph" transform="scale(1 1) rotate(0) translate(4 400)">
<polygon fill="white" stroke="transparent" points="-4,4 -4,-400 321,-400 321,4 -4,4"/>
<!-- 2 -->
<g id="node1" class="node">
<title>2</title>
<ellipse fill="none" stroke="black" cx="46" cy="-378" rx="27" ry="18"/>
<text text-anchor="middle" x="46" y="-373.8" font-family="Times,serif" font-size="14.00">2</text>
</g>
<!-- 3 -->
<g id="node2" class="node">
<title>3</title>
<ellipse fill="none" stroke="black" cx="50" cy="-306" rx="27" ry="18"/>
<text text-anchor="middle" x="50" y="-301.8" font-family="Times,serif" font-size="14.00">3</text>
</g>
<!-- 2&#45;&#45;3 -->
<g id="edge1" class="edge">
<title>2&#45;&#45;3</title>
<path fill="none" stroke="black" d="M46.99,-359.7C47.61,-348.85 48.4,-334.92 49.02,-324.1"/>
</g>
<!-- 9 -->
<g id="node6" class="node">
<title>9</title>
<ellipse fill="none" stroke="black" cx="27" cy="-234" rx="27" ry="18"/>
<text text-anchor="middle" x="27" y="-229.8" font-family="Times,serif" font-size="14.00">9</text>
</g>
<!-- 3&#45;&#45;9 -->
<g id="edge4" class="edge">
<title>3&#45;&#45;9</title>
<path fill="none" stroke="black" d="M44.43,-288.05C40.82,-277.05 36.12,-262.76 32.52,-251.79"/>
</g>
<!-- 4 -->
<g id="node7" class="node">
<title>4</title>
<ellipse fill="none" stroke="black" cx="99" cy="-234" rx="27" ry="18"/>
<text text-anchor="middle" x="99" y="-229.8" font-family="Times,serif" font-size="14.00">4</text>
</g>
<!-- 3&#45;&#45;4 -->
<g id="edge5" class="edge">
<title>3&#45;&#45;4</title>
<path fill="none" stroke="black" d="M60.87,-289.46C68.99,-277.86 80.04,-262.08 88.16,-250.49"/>
</g>
<!-- 11 -->
<g id="node3" class="node">
<title>11</title>
<ellipse fill="none" stroke="black" cx="180" cy="-306" rx="27" ry="18"/>
<text text-anchor="middle" x="180" y="-301.8" font-family="Times,serif" font-size="14.00">11</text>
</g>
<!-- 10 -->
<g id="node4" class="node">
<title>10</title>
<ellipse fill="none" stroke="black" cx="247" cy="-234" rx="27" ry="18"/>
<text text-anchor="middle" x="247" y="-229.8" font-family="Times,serif" font-size="14.00">10</text>
</g>
<!-- 11&#45;&#45;10 -->
<g id="edge2" class="edge">
<title>11&#45;&#45;10</title>
<path fill="none" stroke="black" d="M193.88,-290.5C205.38,-278.48 221.64,-261.49 233.14,-249.49"/>
</g>
<!-- 5 -->
<g id="node5" class="node">
<title>5</title>
<ellipse fill="none" stroke="black" cx="112" cy="-90" rx="27" ry="18"/>
<text text-anchor="middle" x="112" y="-85.8" font-family="Times,serif" font-size="14.00">5</text>
</g>
<!-- 11&#45;&#45;5 -->
<g id="edge3" class="edge">
<title>11&#45;&#45;5</title>
<path fill="none" stroke="black" d="M180.34,-287.67C180.3,-257.19 177.29,-192.59 155,-144 148.28,-129.35 136.56,-115.31 127.06,-105.36"/>
</g>
<!-- 7 -->
<g id="node8" class="node">
<title>7</title>
<ellipse fill="none" stroke="black" cx="190" cy="-90" rx="27" ry="18"/>
<text text-anchor="middle" x="190" y="-85.8" font-family="Times,serif" font-size="14.00">7</text>
</g>
<!-- 10&#45;&#45;7 -->
<g id="edge6" class="edge">
<title>10&#45;&#45;7</title>
<path fill="none" stroke="black" d="M240.35,-216.43C229.37,-189.07 207.56,-134.75 196.61,-107.46"/>
</g>
<!-- 8 -->
<g id="node12" class="node">
<title>8</title>
<ellipse fill="none" stroke="black" cx="77" cy="-18" rx="27" ry="18"/>
<text text-anchor="middle" x="77" y="-13.8" font-family="Times,serif" font-size="14.00">8</text>
</g>
<!-- 9&#45;&#45;8 -->
<g id="edge10" class="edge">
<title>9&#45;&#45;8</title>
<path fill="none" stroke="black" d="M31.01,-215.85C40.39,-175.68 63.71,-75.89 73.04,-35.94"/>
</g>
<!-- 4&#45;&#45;5 -->
<g id="edge11" class="edge">
<title>4&#45;&#45;5</title>
<path fill="none" stroke="black" d="M100.57,-215.87C103.07,-188.58 107.92,-135.52 110.43,-108.19"/>
</g>
<!-- 6 -->
<g id="node9" class="node">
<title>6</title>
<ellipse fill="none" stroke="black" cx="163" cy="-18" rx="27" ry="18"/>
<text text-anchor="middle" x="163" y="-13.8" font-family="Times,serif" font-size="14.00">6</text>
</g>
<!-- 7&#45;&#45;6 -->
<g id="edge7" class="edge">
<title>7&#45;&#45;6</title>
<path fill="none" stroke="black" d="M183.6,-72.41C179.36,-61.41 173.81,-47.03 169.54,-35.96"/>
</g>
<!-- 0 -->
<g id="node10" class="node">
<title>0</title>
<ellipse fill="none" stroke="black" cx="290" cy="-162" rx="27" ry="18"/>
<text text-anchor="middle" x="290" y="-157.8" font-family="Times,serif" font-size="14.00">0</text>
</g>
<!-- 0&#45;&#45;7 -->
<g id="edge8" class="edge">
<title>0&#45;&#45;7</title>
<path fill="none" stroke="black" d="M272.12,-148.49C254.03,-135.82 226.22,-116.35 208.06,-103.64"/>
</g>
<!-- 1 -->
<g id="node11" class="node">
<title>1</title>
<ellipse fill="none" stroke="black" cx="118" cy="-378" rx="27" ry="18"/>
<text text-anchor="middle" x="118" y="-373.8" font-family="Times,serif" font-size="14.00">1</text>
</g>
<!-- 1&#45;&#45;5 -->
<g id="edge9" class="edge">
<title>1&#45;&#45;5</title>
<path fill="none" stroke="black" d="M121.98,-360.09C128.38,-330.78 139.8,-268.62 135,-216 131.43,-176.89 121.71,-131.73 116.11,-107.85"/>
</g>
</g>
</svg>
