<?xml version="1.0" encoding="UTF-8" standalone="no"?>
<!DOCTYPE svg PUBLIC "-//W3C//DTD SVG 1.1//EN"
 "http://www.w3.org/Graphics/SVG/1.1/DTD/svg11.dtd">
<!-- Generated by graphviz version 5.0.0 (20220707.1540)
 -->
<!-- Pages: 1 -->
<svg width="350pt" height="188pt"
 viewBox="0.00 0.00 350.00 188.00" xmlns="http://www.w3.org/2000/svg" xmlns:xlink="http://www.w3.org/1999/xlink">
<g id="graph0" class="graph" transform="scale(1 1) rotate(0) translate(4 184)">
<polygon fill="white" stroke="transparent" points="-4,4 -4,-184 346,-184 346,4 -4,4"/>
<!-- 2 -->
<g id="node1" class="node">
<title>2</title>
<ellipse fill="none" stroke="black" cx="99" cy="-162" rx="27" ry="18"/>
<text text-anchor="middle" x="99" y="-157.8" font-family="Times,serif" font-size="14.00">2</text>
</g>
<!-- 3 -->
<g id="node2" class="node">
<title>3</title>
<ellipse fill="none" stroke="black" cx="85" cy="-90" rx="27" ry="18"/>
<text text-anchor="middle" x="85" y="-85.8" font-family="Times,serif" font-size="14.00">3</text>
</g>
<!-- 2&#45;&#45;3 -->
<g id="edge1" class="edge">
<title>2&#45;&#45;3</title>
<path fill="none" stroke="black" d="M95.61,-144.05C93.44,-133.21 90.64,-119.18 88.46,-108.28"/>
</g>
<!-- 9 -->
<g id="node7" class="node">
<title>9</title>
<ellipse fill="none" stroke="black" cx="53" cy="-18" rx="27" ry="18"/>
<text text-anchor="middle" x="53" y="-13.8" font-family="Times,serif" font-size="14.00">9</text>
</g>
<!-- 3&#45;&#45;9 -->
<g id="edge5" class="edge">
<title>3&#45;&#45;9</title>
<path fill="none" stroke="black" d="M77.42,-72.41C72.32,-61.25 65.62,-46.6 60.53,-35.47"/>
</g>
<!-- 4 -->
<g id="node3" class="node">
<title>4</title>
<ellipse fill="none" stroke="black" cx="171" cy="-162" rx="27" ry="18"/>
<text text-anchor="middle" x="171" y="-157.8" font-family="Times,serif" font-size="14.00">4</text>
</g>
<!-- 4&#45;&#45;3 -->
<g id="edge2" class="edge">
<title>4&#45;&#45;3</title>
<path fill="none" stroke="black" d="M154.42,-147.5C139.19,-135.11 116.74,-116.84 101.53,-104.46"/>
</g>
<!-- 5 -->
<g id="node4" class="node">
<title>5</title>
<ellipse fill="none" stroke="black" cx="161" cy="-90" rx="27" ry="18"/>
<text text-anchor="middle" x="161" y="-85.8" font-family="Times,serif" font-size="14.00">5</text>
</g>
<!-- 4&#45;&#45;5 -->
<g id="edge3" class="edge">
<title>4&#45;&#45;5</title>
<path fill="none" stroke="black" d="M168.58,-144.05C167.03,-133.21 165.03,-119.18 163.47,-108.28"/>
</g>
<!-- 11 -->
<g id="node9" class="node">
<title>11</title>
<ellipse fill="none" stroke="black" cx="217" cy="-18" rx="27" ry="18"/>
<text text-anchor="middle" x="217" y="-13.8" font-family="Times,serif" font-size="14.00">11</text>
</g>
<!-- 5&#45;&#45;11 -->
<g id="edge8" class="edge">
<title>5&#45;&#45;11</title>
<path fill="none" stroke="black" d="M173.15,-73.81C182.54,-62.07 195.49,-45.89 204.87,-34.16"/>
</g>
<!-- 1 -->
<g id="node10" class="node">
<title>1</title>
<ellipse fill="none" stroke="black" cx="138" cy="-18" rx="27" ry="18"/>
<text text-anchor="middle" x="138" y="-13.8" font-family="Times,serif" font-size="14.00">1</text>
</g>
<!-- 5&#45;&#45;1 -->
<g id="edge9" class="edge">
<title>5&#45;&#45;1</title>
<path fill="none" stroke="black" d="M155.43,-72.05C151.82,-61.05 147.12,-46.76 143.52,-35.79"/>
</g>
<!-- 6 -->
<g id="node5" class="node">
<title>6</title>
<ellipse fill="none" stroke="black" cx="315" cy="-162" rx="27" ry="18"/>
<text text-anchor="middle" x="315" y="-157.8" font-family="Times,serif" font-size="14.00">6</text>
</g>
<!-- 7 -->
<g id="node6" class="node">
<title>7</title>
<ellipse fill="none" stroke="black" cx="292" cy="-18" rx="27" ry="18"/>
<text text-anchor="middle" x="292" y="-13.8" font-family="Times,serif" font-size="14.00">7</text>
</g>
<!-- 6&#45;&#45;7 -->
<g id="edge4" class="edge">
<title>6&#45;&#45;7</title>
<path fill="none" stroke="black" d="M312.23,-143.87C307.8,-116.58 299.21,-63.52 294.78,-36.19"/>
</g>
<!-- 10 -->
<g id="node8" class="node">
<title>10</title>
<ellipse fill="none" stroke="black" cx="241" cy="-90" rx="27" ry="18"/>
<text text-anchor="middle" x="241" y="-85.8" font-family="Times,serif" font-size="14.00">10</text>
</g>
<!-- 10&#45;&#45;7 -->
<g id="edge7" class="edge">
<title>10&#45;&#45;7</title>
<path fill="none" stroke="black" d="M252.32,-73.46C260.77,-61.86 272.27,-46.08 280.71,-34.49"/>
</g>
<!-- 10&#45;&#45;11 -->
<g id="edge6" class="edge">
<title>10&#45;&#45;11</title>
<path fill="none" stroke="black" d="M235.19,-72.05C231.42,-61.05 226.52,-46.76 222.76,-35.79"/>
</g>
<!-- 0 -->
<g id="node11" class="node">
<title>0</title>
<ellipse fill="none" stroke="black" cx="243" cy="-162" rx="27" ry="18"/>
<text text-anchor="middle" x="243" y="-157.8" font-family="Times,serif" font-size="14.00">0</text>
</g>
<!-- 0&#45;&#45;10 -->
<g id="edge10" class="edge">
<title>0&#45;&#45;10</title>
<path fill="none" stroke="black" d="M242.51,-143.7C242.2,-132.85 241.8,-118.92 241.49,-108.1"/>
</g>
<!-- 8 -->
<g id="node12" class="node">
<title>8</title>
<ellipse fill="none" stroke="black" cx="27" cy="-162" rx="27" ry="18"/>
<text text-anchor="middle" x="27" y="-157.8" font-family="Times,serif" font-size="14.00">8</text>
</g>
<!-- 8&#45;&#45;9 -->
<g id="edge11" class="edge">
<title>8&#45;&#45;9</title>
<path fill="none" stroke="black" d="M30.14,-143.87C35.13,-116.58 44.85,-63.52 49.85,-36.19"/>
</g>
</g>
</svg>
