<?xml version="1.0" encoding="UTF-8" standalone="no"?>
<!DOCTYPE svg PUBLIC "-//W3C//DTD SVG 1.1//EN"
 "http://www.w3.org/Graphics/SVG/1.1/DTD/svg11.dtd">
<!-- Generated by graphviz version 5.0.0 (20220707.1540)
 -->
<!-- Pages: 1 -->
<svg width="490pt" height="404pt"
 viewBox="0.00 0.00 490.28 404.00" xmlns="http://www.w3.org/2000/svg" xmlns:xlink="http://www.w3.org/1999/xlink">
<g id="graph0" class="graph" transform="scale(1 1) rotate(0) translate(4 400)">
<polygon fill="white" stroke="transparent" points="-4,4 -4,-400 486.28,-400 486.28,4 -4,4"/>
<!-- 7 -->
<g id="node1" class="node">
<title>7</title>
<ellipse fill="none" stroke="black" cx="101" cy="-306" rx="27" ry="18"/>
<text text-anchor="middle" x="101" y="-301.8" font-family="Times,serif" font-size="14.00">7</text>
</g>
<!-- 6 -->
<g id="node2" class="node">
<title>6</title>
<ellipse fill="none" stroke="black" cx="27" cy="-18" rx="27" ry="18"/>
<text text-anchor="middle" x="27" y="-13.8" font-family="Times,serif" font-size="14.00">6</text>
</g>
<!-- 7&#45;&#45;6 -->
<g id="edge1" class="edge">
<title>7&#45;&#45;6</title>
<path fill="none" stroke="black" d="M96.59,-287.97C83.43,-237.1 44.52,-86.7 31.38,-35.94"/>
</g>
<!-- 10 -->
<g id="node3" class="node">
<title>10</title>
<ellipse fill="none" stroke="black" cx="162" cy="-234" rx="27" ry="18"/>
<text text-anchor="middle" x="162" y="-229.8" font-family="Times,serif" font-size="14.00">10</text>
</g>
<!-- 7&#45;&#45;10 -->
<g id="edge2" class="edge">
<title>7&#45;&#45;10</title>
<path fill="none" stroke="black" d="M113.94,-290.15C124.29,-278.28 138.74,-261.7 149.08,-249.82"/>
</g>
<!-- 11 -->
<g id="node4" class="node">
<title>11</title>
<ellipse fill="none" stroke="black" cx="163" cy="-162" rx="27" ry="18"/>
<text text-anchor="middle" x="163" y="-157.8" font-family="Times,serif" font-size="14.00">11</text>
</g>
<!-- 10&#45;&#45;11 -->
<g id="edge3" class="edge">
<title>10&#45;&#45;11</title>
<path fill="none" stroke="black" d="M162.25,-215.7C162.4,-204.85 162.6,-190.92 162.76,-180.1"/>
</g>
<!-- 5 -->
<g id="node8" class="node">
<title>5</title>
<ellipse fill="none" stroke="black" cx="149" cy="-90" rx="27" ry="18"/>
<text text-anchor="middle" x="149" y="-85.8" font-family="Times,serif" font-size="14.00">5</text>
</g>
<!-- 11&#45;&#45;5 -->
<g id="edge12" class="edge">
<title>11&#45;&#45;5</title>
<path fill="none" stroke="black" d="M159.61,-144.05C157.44,-133.21 154.64,-119.18 152.46,-108.28"/>
</g>
<!-- 0 -->
<g id="node5" class="node">
<title>0</title>
<ellipse fill="none" stroke="black" cx="128" cy="-378" rx="27" ry="18"/>
<text text-anchor="middle" x="128" y="-373.8" font-family="Times,serif" font-size="14.00">0</text>
</g>
<!-- 0&#45;&#45;7 -->
<g id="edge5" class="edge">
<title>0&#45;&#45;7</title>
<path fill="none" stroke="black" d="M121.6,-360.41C117.36,-349.41 111.81,-335.03 107.54,-323.96"/>
</g>
<!-- 0&#45;&#45;10 -->
<g id="edge6" class="edge">
<title>0&#45;&#45;10</title>
<path fill="none" stroke="black" d="M132.03,-360.15C138.58,-332.82 151.43,-279.14 157.97,-251.82"/>
</g>
<!-- 1 -->
<g id="node6" class="node">
<title>1</title>
<ellipse fill="none" stroke="black" cx="226" cy="-306" rx="27" ry="18"/>
<text text-anchor="middle" x="226" y="-301.8" font-family="Times,serif" font-size="14.00">1</text>
</g>
<!-- 0&#45;&#45;1 -->
<g id="edge4" class="edge">
<title>0&#45;&#45;1</title>
<path fill="none" stroke="black" d="M145.97,-364.16C163.66,-351.53 190.5,-332.36 208.14,-319.76"/>
</g>
<!-- 8 -->
<g id="node7" class="node">
<title>8</title>
<ellipse fill="none" stroke="black" cx="387" cy="-234" rx="27" ry="18"/>
<text text-anchor="middle" x="387" y="-229.8" font-family="Times,serif" font-size="14.00">8</text>
</g>
<!-- 1&#45;&#45;8 -->
<g id="edge7" class="edge">
<title>1&#45;&#45;8</title>
<path fill="none" stroke="black" d="M248.05,-295.41C278.79,-282.05 334.22,-257.95 364.96,-244.58"/>
</g>
<!-- 1&#45;&#45;5 -->
<g id="edge8" class="edge">
<title>1&#45;&#45;5</title>
<path fill="none" stroke="black" d="M226.32,-287.55C226.19,-256.86 222.84,-191.97 199,-144 191.23,-128.37 177.31,-114.19 166.12,-104.44"/>
</g>
<!-- 8&#45;&#45;6 -->
<g id="edge17" class="edge">
<title>8&#45;&#45;6</title>
<path fill="none" stroke="black" d="M376.57,-216.91C354.54,-184.28 299.94,-110.21 235,-72 204.01,-53.76 101.52,-32.9 52.96,-23.74"/>
</g>
<!-- 4 -->
<g id="node12" class="node">
<title>4</title>
<ellipse fill="none" stroke="black" cx="164" cy="-18" rx="27" ry="18"/>
<text text-anchor="middle" x="164" y="-13.8" font-family="Times,serif" font-size="14.00">4</text>
</g>
<!-- 5&#45;&#45;4 -->
<g id="edge16" class="edge">
<title>5&#45;&#45;4</title>
<path fill="none" stroke="black" d="M152.63,-72.05C154.95,-61.21 157.96,-47.18 160.3,-36.28"/>
</g>
<!-- 2 -->
<g id="node9" class="node">
<title>2</title>
<ellipse fill="none" stroke="black" cx="233" cy="-378" rx="27" ry="18"/>
<text text-anchor="middle" x="233" y="-373.8" font-family="Times,serif" font-size="14.00">2</text>
</g>
<!-- 2&#45;&#45;6 -->
<g id="edge11" class="edge">
<title>2&#45;&#45;6</title>
<path fill="none" stroke="black" d="M249.3,-363.07C259.4,-353.3 271.48,-339.3 277,-324 282.43,-308.95 280.04,-303.71 277,-288 257.15,-185.56 262.99,-141.32 185,-72 147.37,-38.55 87.9,-26.09 53.67,-21.54"/>
</g>
<!-- 2&#45;&#45;11 -->
<g id="edge9" class="edge">
<title>2&#45;&#45;11</title>
<path fill="none" stroke="black" d="M244.41,-361.18C250.97,-351.09 258.57,-337.41 262,-324 265.96,-308.5 267.26,-303.11 262,-288 245.53,-240.68 202.86,-197.79 179.27,-176.71"/>
</g>
<!-- 3 -->
<g id="node10" class="node">
<title>3</title>
<ellipse fill="none" stroke="black" cx="327" cy="-90" rx="27" ry="18"/>
<text text-anchor="middle" x="327" y="-85.8" font-family="Times,serif" font-size="14.00">3</text>
</g>
<!-- 2&#45;&#45;3 -->
<g id="edge10" class="edge">
<title>2&#45;&#45;3</title>
<path fill="none" stroke="black" d="M257.43,-370.17C301.23,-356.38 391.49,-320.52 423,-252 449.65,-194.05 379.22,-130.46 344.74,-103.84"/>
</g>
<!-- 3&#45;&#45;4 -->
<g id="edge18" class="edge">
<title>3&#45;&#45;4</title>
<path fill="none" stroke="black" d="M304.68,-79.41C273.46,-66.01 217.12,-41.81 186.05,-28.47"/>
</g>
<!-- 9 -->
<g id="node11" class="node">
<title>9</title>
<ellipse fill="none" stroke="black" cx="342" cy="-378" rx="27" ry="18"/>
<text text-anchor="middle" x="342" y="-373.8" font-family="Times,serif" font-size="14.00">9</text>
</g>
<!-- 9&#45;&#45;8 -->
<g id="edge13" class="edge">
<title>9&#45;&#45;8</title>
<path fill="none" stroke="black" d="M347.34,-360.15C356,-332.82 373.01,-279.14 381.67,-251.82"/>
</g>
<!-- 9&#45;&#45;3 -->
<g id="edge15" class="edge">
<title>9&#45;&#45;3</title>
<path fill="none" stroke="black" d="M360.23,-364.2C387.21,-343.99 436.68,-301.84 456,-252 461.78,-237.08 458.66,-231.78 456,-216 450.37,-182.6 453.26,-169.54 431,-144 409.96,-119.86 375.28,-105.33 351.81,-97.74"/>
</g>
<!-- 9&#45;&#45;4 -->
<g id="edge14" class="edge">
<title>9&#45;&#45;4</title>
<path fill="none" stroke="black" d="M365.15,-368.36C385.66,-359.74 415.32,-344.78 435,-324 490.32,-265.59 497.18,-211.87 454,-144 394.99,-51.26 250.53,-27.11 190.66,-21"/>
</g>
</g>
</svg>
