<?xml version="1.0" encoding="UTF-8" standalone="no"?>
<!DOCTYPE svg PUBLIC "-//W3C//DTD SVG 1.1//EN"
 "http://www.w3.org/Graphics/SVG/1.1/DTD/svg11.dtd">
<!-- Generated by graphviz version 5.0.0 (20220707.1540)
 -->
<!-- Pages: 1 -->
<svg width="392pt" height="404pt"
 viewBox="0.00 0.00 391.81 404.00" xmlns="http://www.w3.org/2000/svg" xmlns:xlink="http://www.w3.org/1999/xlink">
<g id="graph0" class="graph" transform="scale(1 1) rotate(0) translate(4 400)">
<polygon fill="white" stroke="transparent" points="-4,4 -4,-400 387.81,-400 387.81,4 -4,4"/>
<!-- 1 -->
<g id="node1" class="node">
<title>1</title>
<ellipse fill="none" stroke="black" cx="211" cy="-306" rx="27" ry="18"/>
<text text-anchor="middle" x="211" y="-301.8" font-family="Times,serif" font-size="14.00">1</text>
</g>
<!-- 5 -->
<g id="node2" class="node">
<title>5</title>
<ellipse fill="none" stroke="black" cx="324" cy="-234" rx="27" ry="18"/>
<text text-anchor="middle" x="324" y="-229.8" font-family="Times,serif" font-size="14.00">5</text>
</g>
<!-- 1&#45;&#45;5 -->
<g id="edge1" class="edge">
<title>1&#45;&#45;5</title>
<path fill="none" stroke="black" d="M230.17,-293.13C250.95,-280.25 283.92,-259.83 304.74,-246.93"/>
</g>
<!-- 8 -->
<g id="node3" class="node">
<title>8</title>
<ellipse fill="none" stroke="black" cx="194" cy="-234" rx="27" ry="18"/>
<text text-anchor="middle" x="194" y="-229.8" font-family="Times,serif" font-size="14.00">8</text>
</g>
<!-- 1&#45;&#45;8 -->
<g id="edge2" class="edge">
<title>1&#45;&#45;8</title>
<path fill="none" stroke="black" d="M206.88,-288.05C204.25,-277.21 200.84,-263.18 198.2,-252.28"/>
</g>
<!-- 4 -->
<g id="node7" class="node">
<title>4</title>
<ellipse fill="none" stroke="black" cx="168" cy="-18" rx="27" ry="18"/>
<text text-anchor="middle" x="168" y="-13.8" font-family="Times,serif" font-size="14.00">4</text>
</g>
<!-- 5&#45;&#45;4 -->
<g id="edge5" class="edge">
<title>5&#45;&#45;4</title>
<path fill="none" stroke="black" d="M314.3,-216.93C296.22,-187.34 255.59,-122.65 216,-72 205.45,-58.5 192.33,-44.16 182.47,-33.8"/>
</g>
<!-- 11 -->
<g id="node8" class="node">
<title>11</title>
<ellipse fill="none" stroke="black" cx="50" cy="-18" rx="27" ry="18"/>
<text text-anchor="middle" x="50" y="-13.8" font-family="Times,serif" font-size="14.00">11</text>
</g>
<!-- 5&#45;&#45;11 -->
<g id="edge6" class="edge">
<title>5&#45;&#45;11</title>
<path fill="none" stroke="black" d="M308.02,-219.26C295.83,-208.68 278.68,-193.61 264,-180 213.53,-133.2 208.88,-112.19 153,-72 127.2,-53.45 94.01,-37.61 72.39,-28.2"/>
</g>
<!-- 6 -->
<g id="node5" class="node">
<title>6</title>
<ellipse fill="none" stroke="black" cx="136" cy="-162" rx="27" ry="18"/>
<text text-anchor="middle" x="136" y="-157.8" font-family="Times,serif" font-size="14.00">6</text>
</g>
<!-- 8&#45;&#45;6 -->
<g id="edge10" class="edge">
<title>8&#45;&#45;6</title>
<path fill="none" stroke="black" d="M181.41,-217.81C171.69,-206.07 158.28,-189.89 148.56,-178.16"/>
</g>
<!-- 7 -->
<g id="node4" class="node">
<title>7</title>
<ellipse fill="none" stroke="black" cx="85" cy="-306" rx="27" ry="18"/>
<text text-anchor="middle" x="85" y="-301.8" font-family="Times,serif" font-size="14.00">7</text>
</g>
<!-- 7&#45;&#45;6 -->
<g id="edge3" class="edge">
<title>7&#45;&#45;6</title>
<path fill="none" stroke="black" d="M90.95,-288.43C100.72,-261.22 120.08,-207.33 129.93,-179.9"/>
</g>
<!-- 10 -->
<g id="node6" class="node">
<title>10</title>
<ellipse fill="none" stroke="black" cx="27" cy="-90" rx="27" ry="18"/>
<text text-anchor="middle" x="27" y="-85.8" font-family="Times,serif" font-size="14.00">10</text>
</g>
<!-- 7&#45;&#45;10 -->
<g id="edge4" class="edge">
<title>7&#45;&#45;10</title>
<path fill="none" stroke="black" d="M80.45,-288.21C69.63,-248.3 42.49,-148.13 31.61,-108.01"/>
</g>
<!-- 2 -->
<g id="node11" class="node">
<title>2</title>
<ellipse fill="none" stroke="black" cx="117" cy="-90" rx="27" ry="18"/>
<text text-anchor="middle" x="117" y="-85.8" font-family="Times,serif" font-size="14.00">2</text>
</g>
<!-- 6&#45;&#45;2 -->
<g id="edge13" class="edge">
<title>6&#45;&#45;2</title>
<path fill="none" stroke="black" d="M131.4,-144.05C128.41,-133.05 124.54,-118.76 121.56,-107.79"/>
</g>
<!-- 10&#45;&#45;11 -->
<g id="edge18" class="edge">
<title>10&#45;&#45;11</title>
<path fill="none" stroke="black" d="M32.57,-72.05C36.18,-61.05 40.88,-46.76 44.48,-35.79"/>
</g>
<!-- 9 -->
<g id="node9" class="node">
<title>9</title>
<ellipse fill="none" stroke="black" cx="123" cy="-378" rx="27" ry="18"/>
<text text-anchor="middle" x="123" y="-373.8" font-family="Times,serif" font-size="14.00">9</text>
</g>
<!-- 9&#45;&#45;8 -->
<g id="edge7" class="edge">
<title>9&#45;&#45;8</title>
<path fill="none" stroke="black" d="M131.14,-360.71C144.77,-333.47 172.03,-278.95 185.73,-251.54"/>
</g>
<!-- 9&#45;&#45;4 -->
<g id="edge8" class="edge">
<title>9&#45;&#45;4</title>
<path fill="none" stroke="black" d="M149.94,-375.72C191.1,-372.56 270.6,-361.66 325,-324 357.24,-301.68 364.11,-289.37 376,-252 403.56,-165.4 351.84,-126.34 279,-72 251.61,-51.57 215.1,-35.97 191.57,-27.15"/>
</g>
<!-- 3 -->
<g id="node10" class="node">
<title>3</title>
<ellipse fill="none" stroke="black" cx="289" cy="-306" rx="27" ry="18"/>
<text text-anchor="middle" x="289" y="-301.8" font-family="Times,serif" font-size="14.00">3</text>
</g>
<!-- 9&#45;&#45;3 -->
<g id="edge9" class="edge">
<title>9&#45;&#45;3</title>
<path fill="none" stroke="black" d="M145.39,-367.56C177.16,-354.16 234.98,-329.78 266.7,-316.4"/>
</g>
<!-- 3&#45;&#45;4 -->
<g id="edge11" class="edge">
<title>3&#45;&#45;4</title>
<path fill="none" stroke="black" d="M311.14,-295.35C327.96,-286.69 349.87,-272.21 360,-252 367.17,-237.7 365.38,-231.07 360,-216 328.02,-126.5 229.74,-57.11 187.56,-30.64"/>
</g>
<!-- 3&#45;&#45;2 -->
<g id="edge12" class="edge">
<title>3&#45;&#45;2</title>
<path fill="none" stroke="black" d="M278.99,-288.94C267.59,-270.88 248.17,-240.83 230,-216 205.73,-182.84 199.74,-174.32 172,-144 159.29,-130.11 143.76,-115.32 132.44,-104.9"/>
</g>
<!-- 2&#45;&#45;11 -->
<g id="edge17" class="edge">
<title>2&#45;&#45;11</title>
<path fill="none" stroke="black" d="M103.12,-74.5C91.62,-62.48 75.36,-45.49 63.86,-33.49"/>
</g>
<!-- 0 -->
<g id="node12" class="node">
<title>0</title>
<ellipse fill="none" stroke="black" cx="42" cy="-378" rx="27" ry="18"/>
<text text-anchor="middle" x="42" y="-373.8" font-family="Times,serif" font-size="14.00">0</text>
</g>
<!-- 0&#45;&#45;1 -->
<g id="edge14" class="edge">
<title>0&#45;&#45;1</title>
<path fill="none" stroke="black" d="M64.44,-367.7C96.86,-354.28 156.42,-329.61 188.73,-316.22"/>
</g>
<!-- 0&#45;&#45;7 -->
<g id="edge15" class="edge">
<title>0&#45;&#45;7</title>
<path fill="none" stroke="black" d="M51.76,-361.12C58.79,-349.66 68.25,-334.26 75.28,-322.82"/>
</g>
<!-- 0&#45;&#45;10 -->
<g id="edge16" class="edge">
<title>0&#45;&#45;10</title>
<path fill="none" stroke="black" d="M41.11,-359.97C38.45,-309.22 30.59,-159.41 27.91,-108.31"/>
</g>
</g>
</svg>
