<?xml version="1.0" encoding="UTF-8" standalone="no"?>
<!DOCTYPE svg PUBLIC "-//W3C//DTD SVG 1.1//EN"
 "http://www.w3.org/Graphics/SVG/1.1/DTD/svg11.dtd">
<!-- Generated by graphviz version 5.0.0 (20220707.1540)
 -->
<!-- Pages: 1 -->
<svg width="347pt" height="404pt"
 viewBox="0.00 0.00 347.38 404.00" xmlns="http://www.w3.org/2000/svg" xmlns:xlink="http://www.w3.org/1999/xlink">
<g id="graph0" class="graph" transform="scale(1 1) rotate(0) translate(4 400)">
<polygon fill="white" stroke="transparent" points="-4,4 -4,-400 343.38,-400 343.38,4 -4,4"/>
<!-- 2 -->
<g id="node1" class="node">
<title>2</title>
<ellipse fill="none" stroke="black" cx="115" cy="-306" rx="27" ry="18"/>
<text text-anchor="middle" x="115" y="-301.8" font-family="Times,serif" font-size="14.00">2</text>
</g>
<!-- 3 -->
<g id="node2" class="node">
<title>3</title>
<ellipse fill="none" stroke="black" cx="101" cy="-90" rx="27" ry="18"/>
<text text-anchor="middle" x="101" y="-85.8" font-family="Times,serif" font-size="14.00">3</text>
</g>
<!-- 2&#45;&#45;3 -->
<g id="edge1" class="edge">
<title>2&#45;&#45;3</title>
<path fill="none" stroke="black" d="M113.88,-287.85C111.26,-247.78 104.75,-148.38 102.13,-108.23"/>
</g>
<!-- 0 -->
<g id="node3" class="node">
<title>0</title>
<ellipse fill="none" stroke="black" cx="112" cy="-378" rx="27" ry="18"/>
<text text-anchor="middle" x="112" y="-373.8" font-family="Times,serif" font-size="14.00">0</text>
</g>
<!-- 1 -->
<g id="node4" class="node">
<title>1</title>
<ellipse fill="none" stroke="black" cx="227" cy="-306" rx="27" ry="18"/>
<text text-anchor="middle" x="227" y="-301.8" font-family="Times,serif" font-size="14.00">1</text>
</g>
<!-- 0&#45;&#45;1 -->
<g id="edge2" class="edge">
<title>0&#45;&#45;1</title>
<path fill="none" stroke="black" d="M131.25,-365.28C152.48,-352.36 186.44,-331.69 207.69,-318.75"/>
</g>
<!-- 7 -->
<g id="node5" class="node">
<title>7</title>
<ellipse fill="none" stroke="black" cx="27" cy="-18" rx="27" ry="18"/>
<text text-anchor="middle" x="27" y="-13.8" font-family="Times,serif" font-size="14.00">7</text>
</g>
<!-- 0&#45;&#45;7 -->
<g id="edge3" class="edge">
<title>0&#45;&#45;7</title>
<path fill="none" stroke="black" d="M100.17,-361.61C92.96,-351.46 84.16,-337.58 79,-324 39.34,-219.55 29.8,-83.48 27.62,-36.13"/>
</g>
<!-- 10 -->
<g id="node6" class="node">
<title>10</title>
<ellipse fill="none" stroke="black" cx="149" cy="-234" rx="27" ry="18"/>
<text text-anchor="middle" x="149" y="-229.8" font-family="Times,serif" font-size="14.00">10</text>
</g>
<!-- 0&#45;&#45;10 -->
<g id="edge4" class="edge">
<title>0&#45;&#45;10</title>
<path fill="none" stroke="black" d="M126.48,-362.71C135.45,-352.8 146.15,-338.76 151,-324 158.91,-299.92 155.86,-270.17 152.65,-251.89"/>
</g>
<!-- 5 -->
<g id="node8" class="node">
<title>5</title>
<ellipse fill="none" stroke="black" cx="225" cy="-234" rx="27" ry="18"/>
<text text-anchor="middle" x="225" y="-229.8" font-family="Times,serif" font-size="14.00">5</text>
</g>
<!-- 1&#45;&#45;5 -->
<g id="edge6" class="edge">
<title>1&#45;&#45;5</title>
<path fill="none" stroke="black" d="M226.51,-287.7C226.2,-276.85 225.8,-262.92 225.49,-252.1"/>
</g>
<!-- 11 -->
<g id="node7" class="node">
<title>11</title>
<ellipse fill="none" stroke="black" cx="213" cy="-378" rx="27" ry="18"/>
<text text-anchor="middle" x="213" y="-373.8" font-family="Times,serif" font-size="14.00">11</text>
</g>
<!-- 11&#45;&#45;5 -->
<g id="edge5" class="edge">
<title>11&#45;&#45;5</title>
<path fill="none" stroke="black" d="M230.72,-364.15C242.33,-354.56 256.51,-340.34 263,-324 268.91,-309.13 267.9,-303.23 263,-288 258.29,-273.34 247.86,-259.3 239.11,-249.36"/>
</g>
<!-- 4 -->
<g id="node9" class="node">
<title>4</title>
<ellipse fill="none" stroke="black" cx="178" cy="-162" rx="27" ry="18"/>
<text text-anchor="middle" x="178" y="-157.8" font-family="Times,serif" font-size="14.00">4</text>
</g>
<!-- 5&#45;&#45;4 -->
<g id="edge7" class="edge">
<title>5&#45;&#45;4</title>
<path fill="none" stroke="black" d="M214.33,-217.12C206.64,-205.66 196.3,-190.26 188.62,-178.82"/>
</g>
<!-- 4&#45;&#45;3 -->
<g id="edge10" class="edge">
<title>4&#45;&#45;3</title>
<path fill="none" stroke="black" d="M162.42,-146.83C148.97,-134.61 129.66,-117.05 116.3,-104.91"/>
</g>
<!-- 9 -->
<g id="node10" class="node">
<title>9</title>
<ellipse fill="none" stroke="black" cx="300" cy="-378" rx="27" ry="18"/>
<text text-anchor="middle" x="300" y="-373.8" font-family="Times,serif" font-size="14.00">9</text>
</g>
<!-- 9&#45;&#45;3 -->
<g id="edge8" class="edge">
<title>9&#45;&#45;3</title>
<path fill="none" stroke="black" d="M299.06,-359.85C295.73,-316.52 280.72,-201.99 214,-144 187.67,-121.11 149.76,-106.05 125.26,-98.02"/>
</g>
<!-- 8 -->
<g id="node11" class="node">
<title>8</title>
<ellipse fill="none" stroke="black" cx="310" cy="-162" rx="27" ry="18"/>
<text text-anchor="middle" x="310" y="-157.8" font-family="Times,serif" font-size="14.00">8</text>
</g>
<!-- 9&#45;&#45;8 -->
<g id="edge9" class="edge">
<title>9&#45;&#45;8</title>
<path fill="none" stroke="black" d="M313,-361.94C320.76,-351.92 329.88,-338.06 334,-324 349.03,-272.75 328.78,-209.42 317.16,-179.78"/>
</g>
<!-- 6 -->
<g id="node12" class="node">
<title>6</title>
<ellipse fill="none" stroke="black" cx="211" cy="-90" rx="27" ry="18"/>
<text text-anchor="middle" x="211" y="-85.8" font-family="Times,serif" font-size="14.00">6</text>
</g>
<!-- 8&#45;&#45;6 -->
<g id="edge11" class="edge">
<title>8&#45;&#45;6</title>
<path fill="none" stroke="black" d="M291.84,-148.16C273.98,-135.53 246.87,-116.36 229.04,-103.76"/>
</g>
</g>
</svg>
